<?xml version="1.0" encoding="UTF-8" standalone="no"?> <svg xmlns="http://www.w3.org/2000/svg" xmlns:xlink="http://www.w3.org/1999/xlink" xmlns:serif="http://www.serif.com/" width="284px" height="53px" xml:space="preserve" style="fill-rule:evenodd;clip-rule:evenodd;stroke-linejoin:round;stroke-miterlimit:1.41421;"><g transform="matrix(1.0588,0,0,1.0588,247.845,46.9465)"><path d="M0,-38.622L0,-42.679L1.798,-42.679C2.158,-42.679 2.434,-42.643 2.621,-42.569C2.809,-42.497 2.959,-42.368 3.071,-42.185C3.184,-41.999 3.24,-41.796 3.24,-41.573C3.24,-41.285 3.146,-41.042 2.961,-40.845C2.775,-40.648 2.487,-40.522 2.099,-40.47C2.24,-40.401 2.349,-40.334 2.422,-40.268C2.579,-40.124 2.727,-39.943 2.866,-39.727L3.568,-38.622L2.897,-38.622L2.361,-39.468C2.205,-39.711 2.076,-39.897 1.975,-40.026C1.873,-40.155 1.783,-40.246 1.702,-40.298C1.622,-40.349 1.541,-40.385 1.457,-40.405C1.396,-40.417 1.297,-40.424 1.159,-40.424L0.537,-40.424L0.537,-38.622L0,-38.622ZM0.537,-40.889L1.689,-40.889C1.936,-40.889 2.126,-40.914 2.264,-40.965C2.401,-41.016 2.506,-41.097 2.578,-41.208C2.648,-41.319 2.686,-41.441 2.686,-41.572C2.686,-41.765 2.615,-41.923 2.477,-42.046C2.338,-42.169 2.119,-42.231 1.82,-42.231L0.537,-42.231L0.537,-40.889ZM-197.121,5.073L-204.254,5.073L-204.254,-27.433L-197.121,-27.433L-197.121,5.073ZM-60.139,5.073C-64.822,5.073 -68.389,4.469 -70.813,3.267C-74.65,1.339 -76.572,-2.216 -76.572,-7.395L-76.572,-40.554L-69.119,-40.554L-69.119,-7.395C-69.119,-5.6 -67.838,-4.423 -65.266,-3.878C-64.174,-3.673 -62.357,-3.561 -59.826,-3.561L-41.321,-3.561L-41.321,5.073L-60.139,5.073ZM-3.348,5.28L-13.637,5.28L-26.891,-12.087L-26.891,5.28L-34.221,5.28L-34.221,-40.554L-26.891,-40.554L-26.891,-23.743L-13.637,-40.554L-3.348,-40.554L-22.256,-18.43L-3.348,5.28ZM-196.037,-36.042C-196.037,-34.55 -196.522,-33.351 -197.491,-32.452C-198.337,-31.641 -199.339,-31.239 -200.507,-31.239C-201.682,-31.239 -202.685,-31.641 -203.515,-32.452C-204.443,-33.376 -204.911,-34.601 -204.911,-36.148C-204.911,-37.692 -204.443,-38.905 -203.515,-39.802C-202.685,-40.64 -201.682,-41.05 -200.507,-41.05C-199.339,-41.05 -198.329,-40.612 -197.467,-39.745C-196.513,-38.784 -196.037,-37.558 -196.037,-36.042M-125.705,-40.518L-140.454,1.265C-141.357,3.851 -142.821,5.134 -144.851,5.134C-146.766,5.134 -148.146,3.92 -149,1.483L-158.467,-25.722L-168.204,1.558C-168.977,3.728 -170.366,4.819 -172.354,4.819C-174.45,4.819 -175.896,3.667 -176.693,1.373L-191.279,-40.518L-183.333,-40.518L-172.354,-9.26L-162.764,-36.928C-161.902,-39.465 -160.455,-40.734 -158.426,-40.734C-156.561,-40.734 -155.221,-39.559 -154.407,-37.217L-144.645,-9.26L-133.773,-40.518L-125.705,-40.518ZM-118.449,-6.339L-124.488,5.461L-133.264,5.461L-110.987,-37.147C-109.145,-40.532 -106.805,-40.241 -106.805,-40.241C-105.078,-40.241 -103.699,-39.221 -102.654,-37.185L-80.838,5.461L-89.194,5.461L-95.407,-6.339L-118.449,-6.339ZM-106.994,-28.429L-114.027,-15.012L-99.959,-15.012L-106.994,-28.429ZM-1.416,-40.629C-1.416,-42.252 -0.1,-43.567 1.523,-43.567C3.146,-43.567 4.462,-42.252 4.462,-40.629C4.462,-39.006 3.146,-37.69 1.523,-37.69C-0.1,-37.69 -1.416,-39.006 -1.416,-40.629M-1.932,-40.629C-1.932,-42.536 -0.385,-44.083 1.523,-44.083C3.432,-44.083 4.978,-42.536 4.978,-40.629C4.978,-38.722 3.432,-37.175 1.523,-37.175C-0.385,-37.175 -1.932,-38.722 -1.932,-40.629" style="fill:blu;"></path></g></svg> 